<svg width="512" height="512" viewBox="0 0 512 512" fill="none" xmlns="http://www.w3.org/2000/svg">
    <path d="M512 256C512 397.385 397.385 512 256 512C114.615 512 0 397.385 0 256C0 114.615 114.615 0 256 0C397.385 0 512 114.615 512 256Z" fill="white"/>
    <path fill-rule="evenodd" clip-rule="evenodd" d="M256.055 38C250.119 38 244.169 38.2295 238.214 38.6907C175.018 43.5843 120.307 73.3709 91.1953 118.731C83.6323 130.514 78.8572 141.653 75.264 155.895C73.013 164.818 72.9254 170.241 74.9451 175.69L76.4715 179.81L74.8672 184.597C73.5947 188.393 73.3267 190.645 73.5722 195.464C74.0745 205.316 78.6955 213.384 87.0795 219.049L89.8867 220.946V241.167L85.6108 243.211C79.1977 246.277 71.8969 253.622 68.6878 260.241C65.8742 266.042 64.5001 272.328 64.5001 278.5C64.5001 287.651 67.521 296.548 73.3507 303.233L76.3293 306.649L74.8739 311.371C72.1245 320.288 73.4128 329.866 78.3332 337.086L80.9038 340.858V356.777C80.9038 376.141 81.7782 381.367 86.7194 391.524C94.4822 407.482 109.731 418.127 127.823 420.218C136.826 421.261 375.316 421.261 384.319 420.218C397.158 418.734 406.971 413.887 416.292 404.427C420.772 399.879 422.648 397.229 425.422 391.524C430.253 381.593 431.238 375.991 431.238 358.438V344.182L433.212 342.348C441.907 334.276 444.858 319.616 439.961 308.819L437.96 304.408L439.88 301.867C448.47 290.5 449.96 273.482 443.519 260.323C440.236 253.615 432.955 246.281 426.531 243.211L422.255 241.167L422.259 222.634L426.331 220.487C431.542 217.738 437.498 211.377 440.064 205.823C441.819 202.023 442.074 200.521 442.083 193.906C442.091 186.844 441.925 185.992 439.598 181.217C437.411 176.731 437.203 175.807 437.913 173.749C439.825 168.213 437.904 156.489 432.765 142.333C419.55 105.937 384.956 72.4642 342.532 55.0287C315.099 43.755 285.771 38 256.055 38ZM422.277 158.865C407.971 102.304 347.066 59.5468 272.577 53.7691C228.404 50.3429 183.28 60.8738 149.166 82.5688C118.273 102.215 97.4015 129.069 89.8657 158.865C88.0931 165.872 88.0175 168.708 89.5251 171.652C89.6934 171.981 89.7913 172.286 89.8819 172.568C89.9531 172.789 90.02 172.999 90.1131 173.193C91.538 176.183 99.1214 176.182 222.704 176.164C232.999 176.163 244.104 176.161 256.071 176.161C268.039 176.161 279.137 176.163 289.432 176.164C413.013 176.182 420.604 176.183 422.029 173.193C422.123 172.999 422.189 172.789 422.26 172.568C422.351 172.286 422.449 171.981 422.617 171.652C424.125 168.708 424.049 165.872 422.277 158.865ZM252.871 81.1678C245.74 81.3719 242.397 73.284 247.602 68.4153C249.696 66.4559 253.546 65.9821 256.112 67.3687C257.928 68.3495 259.814 71.9699 259.814 74.4756C259.814 77.561 256.171 81.0734 252.871 81.1678ZM280.87 83.6555C277.361 80.1136 278.716 73.7714 283.394 71.8384C285.627 70.9165 286.176 70.9664 296.125 72.9999C320.175 77.9155 341.813 86.9804 360.773 100.082C370.344 106.698 383.977 119.739 390.47 128.492C395.539 135.325 403.541 150.215 403.541 152.815C403.541 156.714 399.984 160.251 396.034 160.275C392.162 160.3 390.84 158.97 386.736 150.915C370.974 119.981 336.763 96.9457 292.889 87.7262C284.674 85.9995 282.445 85.2446 280.87 83.6555ZM177.213 116.754C174.021 113.531 174.816 107.73 178.745 105.58C181.972 103.814 184.646 104.114 187.34 106.545C190.242 109.163 190.603 113.03 188.241 116.223C185.339 120.147 180.791 120.366 177.213 116.754ZM233.273 111.81C233.273 109.316 233.721 108.349 235.702 106.563C238.379 104.147 240.853 103.815 243.986 105.45C247.666 107.372 248.81 111.924 246.571 115.749C242.833 122.136 233.273 119.305 233.273 111.81ZM146.404 147.446C138.865 147.446 136.414 136.45 143.282 133.434C146.279 132.119 146.319 132.119 149.363 133.402C152.382 134.676 153.516 136.552 153.516 140.276C153.516 144.106 150.203 147.446 146.404 147.446ZM221.262 147.446C213.722 147.446 211.272 136.45 218.14 133.434C221.136 132.119 221.176 132.119 224.22 133.402C227.24 134.676 228.374 136.552 228.374 140.276C228.374 144.106 225.062 147.446 221.262 147.446ZM267.082 146.888C266.578 144.231 268.134 140.443 270.382 138.855C272.556 137.317 274.967 137.287 277.795 138.763C280.47 140.16 281.528 142.028 281.506 145.318C281.479 149.309 277.905 152.735 273.77 152.735C271.29 152.735 267.574 149.487 267.082 146.888ZM426.336 199.411C426.974 197.872 427.472 195.327 427.443 193.755C427.35 188.771 426.931 188.437 422.629 189.921C419.137 191.127 407.896 191.203 254.948 191.055C164.782 190.968 90.4197 190.605 89.6996 190.249C88.5385 189.675 88.3896 190.044 88.3896 193.498C88.3896 199.527 91.3944 204.428 96.8088 207.231C101.576 209.698 105.243 209.778 112.719 207.576C120.178 205.377 129.342 204.907 135.944 206.381C140.237 207.34 146.719 210.572 153.102 214.936C159.38 219.23 163.784 220.746 169.984 220.746C176.565 220.746 180.27 219.326 189.447 213.288C198.536 207.31 203.946 205.571 213.559 205.535C224.422 205.494 229.37 207.184 241.275 215.005C248.404 219.688 251.547 220.743 258.317 220.723C264.047 220.706 269.212 218.794 275.909 214.209C285.656 207.535 291.787 205.507 302.159 205.528C312.558 205.55 318.756 207.782 329.884 215.51C335.197 219.199 339.926 220.746 345.9 220.746C352.073 220.746 356.463 219.243 362.783 214.972C374.192 207.261 379.048 205.545 389.471 205.541C394.639 205.539 397.779 205.975 401.669 207.238C413.575 211.098 422.698 208.204 426.336 199.411ZM234.021 228.275C230.916 226.23 226.952 223.821 225.21 222.926C219.598 220.035 209.753 219.833 203.523 222.481C202.001 223.128 198.76 225.025 196.321 226.697C185.548 234.081 178.22 236.337 167.151 235.674C158.814 235.175 153.887 233.379 145.117 227.644C141.253 225.119 136.636 222.533 134.855 221.898C130.371 220.301 121.756 220.435 115.978 222.192C113.362 222.988 109.79 223.868 108.04 224.148L104.858 224.657V238.881H407.284V231.325C407.284 224.412 407.163 223.768 405.866 223.768C405.085 223.768 402.19 223.064 399.431 222.204C389.487 219.103 381.386 220.424 372.344 226.623C361.457 234.087 354.171 236.339 343.068 235.674C334.73 235.175 329.802 233.379 321.032 227.644C312.166 221.846 308.852 220.653 301.556 220.639C295.018 220.624 290.928 222.13 283.268 227.37C273.273 234.207 266.414 236.235 255.322 235.633C246.789 235.168 241.938 233.493 234.021 228.275ZM170.741 297.411C167.807 297.411 167.249 296.917 146.188 275.702L124.635 253.995L113.063 254.058C106.697 254.093 99.5467 254.542 97.173 255.057C79.194 258.955 73.2833 283.729 87.3506 296.227C87.7012 296.538 88.0225 296.833 88.3262 297.112C89.0269 297.754 89.6359 298.312 90.2966 298.797C94.6154 301.96 101.192 301.982 150.749 302.148L161.189 302.185C196.082 302.31 224.631 302.142 224.631 301.81C224.631 300.936 198.18 274.397 197.309 274.397C196.907 274.397 191.438 279.575 185.16 285.903C174.236 296.913 173.614 297.411 170.741 297.411ZM170.732 279.301L186.8 263.081L177.892 253.995H145.661L170.732 279.301ZM259.44 315.203C259.44 315.203 273.086 301.431 289.757 284.599L320.068 253.995H198.811L229.122 284.599C245.793 301.431 259.44 315.203 259.44 315.203ZM432.482 280.229C433.63 267.823 425.606 256.907 413.813 254.834C410.763 254.299 396.856 254.005 375.408 254.023L341.783 254.053L318.016 277.807C304.945 290.872 294.248 301.74 294.248 301.959C294.248 302.685 408.281 302.369 412.751 301.63C424.151 299.745 431.404 291.879 432.482 280.229ZM420.917 332.814C426.43 328.783 428.941 321.406 426.766 315.63L426.74 315.563C426.43 314.739 426.243 314.241 425.887 314.026C425.341 313.699 424.398 314.041 422.009 314.91L421.881 314.957C415.853 317.149 407.172 317.423 343.264 317.446L278.122 317.469L271.401 324.325C260.027 335.924 259.088 335.953 248.211 325.035L240.725 317.521L168.488 317.263C110.828 317.056 95.5924 316.8 92.9933 315.992C88.847 314.704 88.2241 315.474 88.5917 321.44C89.2915 332.789 99.8864 338.254 113.201 334.132C127.113 329.826 138.899 331.919 152.266 341.068C159.658 346.129 162.813 347.224 169.984 347.224C177.202 347.224 180.31 346.133 187.91 340.923C198.083 333.948 207.288 331.21 217.607 332.092C224.966 332.719 231.118 335.159 240.16 341.031C249.556 347.134 254.336 348.383 262.789 346.943C267.267 346.181 269.193 345.316 275.001 341.459C283.99 335.491 288.717 333.434 295.872 332.381C306.958 330.751 317.044 333.43 327.941 340.899C335.576 346.133 338.675 347.224 345.9 347.224C353.072 347.224 356.227 346.129 363.62 341.068C377.091 331.847 388.657 329.837 403.018 334.222C410.335 336.456 416.612 335.962 420.917 332.814ZM143.315 353.277C139.132 350.468 135.443 348.627 132.675 347.97C126.746 346.561 123.356 346.757 116.461 348.908C110.473 350.774 102.177 351.395 97.8555 350.3L95.8753 349.799V361.056C95.8753 368.59 96.2444 373.745 96.9905 376.636C100.4 389.849 110.165 400.089 123.198 404.115C127.482 405.439 133.625 405.504 256.071 405.504C378.518 405.504 384.66 405.439 388.944 404.115C401.977 400.089 411.742 389.849 415.151 376.636C415.888 373.785 416.266 368.643 416.266 361.517V350.718H410.784C407.102 350.718 403.248 350.098 399.05 348.83C388.349 345.596 382.405 346.642 371.912 353.601C363.019 359.501 358.931 361.218 351.334 362.247C339.789 363.811 331.964 361.608 319.09 353.172C313.65 349.608 311.05 348.401 307.263 347.68C298.779 346.064 292.67 347.64 283.774 353.737C266.281 365.729 249.603 365.729 232.11 353.737C223.308 347.703 216.977 346.088 208.472 347.708C204.603 348.445 202.047 349.665 195.744 353.784C186.937 359.54 181.139 361.794 173.281 362.516C162.933 363.467 154.711 360.932 143.315 353.277Z" fill="#1E1E1E"/>
</svg>
